<?xml version="1.0" encoding="UTF-8" standalone="no"?>
<!-- Generator: Adobe Illustrator 18.0.0, SVG Export Plug-In . SVG Version: 6.00 Build 0)  -->

<svg
   version="1.1"
   id="Capa_1"
   x="0px"
   y="0px"
   viewBox="0 0 379.99998 309.99998"
   xml:space="preserve"
   sodipodi:docname="cold.svg"
   inkscape:version="1.2 (dc2aedaf03, 2022-05-15)"
   width="380"
   height="310"
   xmlns:inkscape="http://www.inkscape.org/namespaces/inkscape"
   xmlns:sodipodi="http://sodipodi.sourceforge.net/DTD/sodipodi-0.dtd"
   xmlns="http://www.w3.org/2000/svg"
   xmlns:svg="http://www.w3.org/2000/svg"
   xmlns:rdf="http://www.w3.org/1999/02/22-rdf-syntax-ns#"
   xmlns:cc="http://creativecommons.org/ns#"
   xmlns:dc="http://purl.org/dc/elements/1.1/"><metadata
   id="metadata42"><rdf:RDF><cc:Work
       rdf:about=""><dc:format>image/svg+xml</dc:format><dc:type
         rdf:resource="http://purl.org/dc/dcmitype/StillImage" /><dc:title /></cc:Work></rdf:RDF></metadata><defs
   id="defs40"><rect
   x="214.5373"
   y="81.026962"
   width="364.4765"
   height="524.59172"
   id="rect1092" />
	
	
</defs><sodipodi:namedview
   pagecolor="#323232"
   bordercolor="#666666"
   borderopacity="1"
   objecttolerance="10"
   gridtolerance="10"
   guidetolerance="10"
   inkscape:pageopacity="0"
   inkscape:pageshadow="2"
   inkscape:window-width="1920"
   inkscape:window-height="996"
   id="namedview38"
   showgrid="false"
   inkscape:zoom="1.5359182"
   inkscape:cx="184.90568"
   inkscape:cy="133.79618"
   inkscape:window-x="-8"
   inkscape:window-y="-8"
   inkscape:window-maximized="1"
   inkscape:current-layer="Capa_1"
   inkscape:showpageshadow="0"
   inkscape:pagecheckerboard="1"
   inkscape:deskcolor="#323232" />
<rect
   style="opacity:1;fill:#4d4c4c;fill-opacity:1;stroke:#009648;stroke-width:0;stroke-linecap:round;stroke-linejoin:round;stroke-miterlimit:4;stroke-dasharray:none;stroke-opacity:1"
   id="rect858"
   width="355.48764"
   height="274.75421"
   x="13.021525"
   y="18.317818"
   ry="43.622112" />
<g
   id="g7"
   transform="translate(0,2.691683)">
</g>
<g
   id="g9"
   transform="translate(0,2.691683)">
</g>
<g
   id="g11"
   transform="translate(0,2.691683)">
</g>
<g
   id="g13"
   transform="translate(0,2.691683)">
</g>
<g
   id="g15"
   transform="translate(0,2.691683)">
</g>
<g
   id="g17"
   transform="translate(0,2.691683)">
</g>
<g
   id="g19"
   transform="translate(0,2.691683)">
</g>
<g
   id="g21"
   transform="translate(0,2.691683)">
</g>
<g
   id="g23"
   transform="translate(0,2.691683)">
</g>
<g
   id="g25"
   transform="translate(0,2.691683)">
</g>
<g
   id="g27"
   transform="translate(0,2.691683)">
</g>
<g
   id="g29"
   transform="translate(0,2.691683)">
</g>
<g
   id="g31"
   transform="translate(0,2.691683)">
</g>
<g
   id="g33"
   transform="translate(0,2.691683)">
</g>
<g
   id="g35"
   transform="translate(0,2.691683)">
</g>
<rect
   style="fill:#4fa5eb;fill-opacity:1;stroke:none;stroke-width:15.9396;stroke-linecap:round;stroke-linejoin:round;stroke-miterlimit:4;stroke-dasharray:none;stroke-opacity:1"
   id="rect823-5-1"
   width="41.438293"
   height="52.217655"
   x="169.28085"
   y="152.64423" /><circle
   style="opacity:0.99;fill:#4fa5eb;fill-opacity:1;stroke-width:0.952441;stroke-linecap:round;stroke-linejoin:round;paint-order:markers fill stroke"
   id="path358"
   cx="190"
   cy="209.64656"
   r="45.57534" /><g
   id="g1305"
   transform="translate(68.345992)"><path
     d="m 121.65401,266.75791 q -23.9702,0 -41.06901,-17.09876 -17.098765,-17.09875 -17.098765,-41.06901 0,-15.34091 7.670515,-29.08386 7.67046,-13.74294 21.09378,-22.05265 V 66.047124 q 0,-12.144919 8.62928,-20.774204 8.62929,-8.629285 20.7742,-8.629285 12.14491,0 20.7742,8.629285 8.62928,8.629285 8.62928,20.774204 v 91.406506 q 13.42338,8.30971 21.09383,22.05265 7.67046,13.74295 7.67046,29.08386 0,23.97026 -17.09876,41.06901 -17.09875,17.09876 -41.06901,17.09876 z m 0,-18.85654 q 15.34097,0 27.16631,-11.98516 11.82529,-11.9851 11.82529,-27.32607 0,-11.18609 -6.07243,-22.21241 -6.07248,-11.02627 -16.2998,-15.50073 l -6.39206,-2.87643 V 66.047124 q 0,-4.474404 -2.87642,-7.350833 -2.87643,-2.876428 -7.35089,-2.876428 -4.4744,0 -7.35083,2.876428 -2.87643,2.876429 -2.87643,7.350833 V 168.00057 l -6.39211,2.87643 q -10.22726,4.47446 -16.29974,15.50073 -6.07243,11.02632 -6.07243,22.21241 0,15.34097 11.82528,27.32607 11.82535,11.98516 27.16626,11.98516 z"
     id="path254"
     style="fill:#ffffff;stroke-width:6.39206" /><rect
     style="opacity:0.99;fill:#ffffff;fill-opacity:1;stroke-width:0.513014;stroke-linecap:round;stroke-linejoin:round;paint-order:markers fill stroke"
     id="rect1228"
     width="21.637882"
     height="10.58875"
     x="121.54044"
     y="83.328865" /><rect
     style="opacity:0.99;fill:#ffffff;fill-opacity:1;stroke-width:0.513014;stroke-linecap:round;stroke-linejoin:round;paint-order:markers fill stroke"
     id="rect1228-0"
     width="21.637882"
     height="10.58875"
     x="121.17541"
     y="115.78568" /><rect
     style="opacity:0.99;fill:#ffffff;fill-opacity:1;stroke-width:0.513014;stroke-linecap:round;stroke-linejoin:round;paint-order:markers fill stroke"
     id="rect1228-0-3"
     width="21.637882"
     height="10.58875"
     x="120.84149"
     y="148.31113" /></g></svg>
